<?xml version="1.0" encoding="utf-8"?>
<!-- Generator: Adobe Illustrator 24.1.3, SVG Export Plug-In . SVG Version: 6.00 Build 0)  -->
<svg version="1.1" xmlns="http://www.w3.org/2000/svg" xmlns:xlink="http://www.w3.org/1999/xlink" x="0px" y="0px"
	 viewBox="0 0 479 479" style="enable-background:new 0 0 479 479;" xml:space="preserve">
<style type="text/css">
	.st0{fill:#4D4D4D;}
	.st1{fill:#F2EA7A;}
	.st2{fill:#F48222;}
	.st3{fill:#FFFFFF;}
	.st4{fill:#ECDEC7;}
	.st5{fill:#0993B2;}
	.st6{fill:#A9DDE9;}
</style>
<g id="Layer_2">
	<circle class="st0" cx="239.5" cy="239.5" r="239.5"/>
</g>
<g id="Layer_1">
	<g>
		<path class="st1" d="M353.21,264.5c-3.61-2.11-8.07-2.11-11.73,0l-18.71,10.83v-73.82c0-4.17-2.25-8.07-5.86-10.13
			c-3.61-2.11-8.11-2.11-11.73-0.05l-15.24,8.82v-74.57c0-4.17-2.25-8.02-5.86-10.13c-3.66-2.11-8.11-2.11-11.73,0l-23.12,13.37
			V55.5c0-4.17-2.25-8.07-5.86-10.13c-3.66-2.11-8.11-2.11-11.73,0l-88.5,51.08v19.73l-4.65,2.69l4.65,4.69l19.46-11.26v161.2
			l-19.46,11.21v19.69l-4.64,2.67l4.64,4.69l89.02-51.26v160.64l-18.76,10.79v19.65l-4.64,2.67l4.64,4.69l139.81-80.34
			c3.61-2.06,5.86-5.96,5.86-10.13v-93.8C359.08,270.45,356.87,266.61,353.21,264.5z M299.32,221.82v67.07l-43.71,25.23v-67.16
			L299.32,221.82z M186.06,98.75l39.73-22.93v66.51l-39.73,22.93V98.75z M186.06,259.99v-67.63l80.44-46.48v67.77L186.06,259.99z
			 M335.63,361.68l-80.01,46.01v-66.46l80.01-46.24V361.68z"/>
		<path class="st2" d="M348.57,259.8c-3.61-2.11-8.07-2.11-11.73,0l-18.71,10.83v-73.82c0-4.17-2.25-8.07-5.86-10.13
			c-3.61-2.11-8.11-2.11-11.73-0.05l-15.24,8.82v-74.57c0-4.17-2.25-8.02-5.86-10.13c-3.66-2.11-8.11-2.11-11.73,0l-23.12,13.37
			V50.81c0-1.9-0.47-3.75-1.32-5.39c-1.02-1.96-4.54-4.75-4.54-4.75s-8.11-2.11-11.73,0l-88.5,51.08v19.73l-4.65,2.69l4.65,4.69
			l19.46-11.26v161.2l-19.46,11.21v19.7l-4.65,2.68l4.65,4.69l89.02-51.26v160.64l-18.76,10.79v19.66l-4.65,2.67l4.65,4.69
			l139.81-80.34c3.61-2.06,5.86-5.96,5.86-10.13v-93.8C354.43,265.76,352.23,261.91,348.57,259.8z M294.68,217.12v67.07
			l-43.71,25.23v-67.16L294.68,217.12z M181.41,94.05l39.73-22.93v66.51l-39.73,22.93V94.05z M181.41,255.3v-67.63l80.44-46.48
			v67.77L181.41,255.3z M330.98,356.98l-80.01,46.01v-66.46l80.01-46.24V356.98z"/>
		<path class="st3" d="M343.92,255.11c-3.61-2.11-8.07-2.11-11.73,0l-18.71,10.83v-73.82c0-4.17-2.25-8.07-5.86-10.13
			c-3.61-2.11-8.11-2.11-11.73-0.05l-15.24,8.82v-74.57c0-4.17-2.25-8.02-5.86-10.13c-3.66-2.11-8.11-2.11-11.73,0l-23.12,13.37
			V46.12c0-1.9-0.47-3.75-1.32-5.39c-1.02-1.96-4.54-4.74-4.54-4.74s-8.11-2.11-11.73,0l-88.5,51.08v19.5l-4.55,2.63l4.55,4.98
			l19.46-11.26v161.2l-19.46,11.21v19.47l-4.55,2.62l4.55,4.98l89.02-51.26v160.64l-18.76,10.79v19.43l-4.55,2.61l4.55,4.98
			l139.81-80.34c3.61-2.06,5.86-5.96,5.86-10.13v-93.8C349.79,261.07,347.58,257.22,343.92,255.11z M290.03,212.43v67.07
			l-43.71,25.23v-67.16L290.03,212.43z M176.77,89.36l39.73-22.93v66.51l-39.73,22.93V89.36z M176.77,250.61v-67.63l80.44-46.48
			v67.77L176.77,250.61z M326.34,352.29l-80.01,46.01v-66.46l80.01-46.24V352.29z"/>
		<path class="st4" d="M339.38,250.14c-3.61-2.11-8.07-2.11-11.73,0l-18.71,10.83v-73.82c0-4.17-2.25-8.07-5.86-10.13
			c-3.61-2.11-8.11-2.11-11.73-0.05l-15.24,8.82v-74.57c0-4.17-2.25-8.02-5.86-10.13c-3.66-2.11-8.11-2.11-11.73,0l-23.12,13.37
			V41.14c0-1.83-0.43-3.61-1.22-5.2c-1.01-2.04-4.64-4.93-4.64-4.93s-8.11-2.11-11.73,0l-88.5,51.08v19.71l-4.69,2.71l4.69,4.69
			l19.46-11.26v161.2l-19.46,11.21v19.67l-4.69,2.7l4.69,4.69l89.02-51.26v160.64l-18.76,10.79v19.63l-4.69,2.7l4.69,4.69
			l139.81-80.34c3.61-2.06,5.86-5.96,5.86-10.13v-93.8C345.24,256.09,343.04,252.25,339.38,250.14z M285.49,207.46v67.07
			l-43.71,25.23V232.6L285.49,207.46z M172.22,84.39l39.73-22.93v66.51l-39.73,22.93V84.39z M172.22,245.63V178l80.44-46.48v67.77
			L172.22,245.63z M321.79,347.32l-80.01,46.01v-66.46l80.01-46.24V347.32z"/>
		<path class="st5" d="M334.69,245.45c-3.61-2.11-8.07-2.11-11.73,0l-18.71,10.83v-73.82c0-4.17-2.25-8.07-5.86-10.13
			c-3.61-2.11-8.11-2.11-11.73-0.05l-15.24,8.82v-74.57c0-4.17-2.25-8.02-5.86-10.13c-3.66-2.11-8.11-2.11-11.73,0l-23.12,13.37
			V36.45c0-4.17-2.25-8.07-5.86-10.13c-3.66-2.11-8.11-2.11-11.73,0l-88.5,51.08V97.1l-4.69,2.71l4.69,4.69l19.46-11.26v161.2
			l-19.46,11.21v19.67l-4.69,2.7l4.69,4.69l89.02-51.26V402.1l-18.76,10.79v19.63l-4.69,2.7l4.69,4.69l139.81-80.34
			c3.61-2.06,5.86-5.96,5.86-10.13v-93.8C340.55,251.4,338.35,247.56,334.69,245.45z M280.8,202.77v67.07l-43.71,25.23v-67.16
			L280.8,202.77z M167.53,79.7l39.73-22.93v66.51l-39.73,22.93V79.7z M167.53,240.94v-67.63l80.44-46.48v67.77L167.53,240.94z
			 M317.1,342.63l-80.01,46.01v-66.46l80.01-46.24V342.63z"/>
		<g>
			<path class="st5" d="M190.31,408.27l18.76-10.79V236.55l-89.02,51.26v-26.77l19.46-11.21V88.34L120.05,99.6V72.78l88.44-51.04
				c1.75-1.02,3.75-1.57,5.78-1.57s4.04,0.54,5.82,1.57c3.58,2.04,5.8,5.89,5.8,10.02v73.52l23.31-13.48
				c1.75-1.02,3.75-1.57,5.78-1.57c2.03,0,4.04,0.54,5.82,1.57c3.58,2.09,5.8,5.93,5.8,10.02v74.79l15.43-8.93
				c1.75-1,3.74-1.52,5.77-1.52c2.06,0,4.07,0.54,5.83,1.57c3.58,2.04,5.8,5.89,5.8,10.02v74.04l18.9-10.94
				c1.78-1.02,3.79-1.57,5.82-1.57c2.03,0,4.03,0.54,5.78,1.57c3.63,2.1,5.8,5.86,5.8,10.07v93.8c0,4.14-2.22,7.98-5.8,10.02
				L190.31,435V408.27z M232.27,317.42v66.75l80.26-46.15v-66.98L232.27,317.42z M232.27,223.14v67.45l43.96-25.38v-67.36
				L232.27,223.14z M162.71,168.55v67.92l80.69-46.48v-68.06L162.71,168.55z M162.71,74.93v66.79l39.98-23.08V51.85L162.71,74.93z"
				/>
			<path class="st6" d="M214.27,20.3c2.01,0,4,0.54,5.76,1.55c3.54,2.02,5.74,5.82,5.74,9.91v73.31v0.43l0.38-0.22l23.12-13.37
				c1.73-1.01,3.71-1.55,5.72-1.55c2.01,0,4,0.54,5.75,1.55c3.54,2.07,5.74,5.87,5.74,9.92v74.57v0.43l0.38-0.22l15.24-8.82
				c1.73-0.99,3.7-1.51,5.7-1.51c2.04,0,4.03,0.54,5.77,1.56c3.54,2.02,5.74,5.82,5.74,9.91v73.82v0.43l0.38-0.22l18.71-10.83
				c1.76-1.01,3.75-1.55,5.76-1.55c2.01,0,3.99,0.54,5.72,1.55c3.59,2.07,5.74,5.8,5.74,9.96v93.8c0,4.09-2.2,7.89-5.74,9.91
				l-139.44,80.13v-26.44l18.64-10.72l0.13-0.07v-0.14V236.77v-0.43l-0.37,0.22l-88.64,51.05v-26.49l19.34-11.14l0.13-0.07v-0.14
				V88.56v-0.43l-0.38,0.22l-19.09,11.04V72.85l88.38-51C210.29,20.83,212.27,20.3,214.27,20.3 M162.59,141.95l0.38-0.22
				l39.73-22.93l0.13-0.07v-0.14V52.07v-0.43l-0.38,0.22l-39.73,22.94l-0.13,0.07v0.14v66.51V141.95 M162.59,236.69l0.37-0.22
				l80.44-46.34l0.13-0.07v-0.14v-67.77v-0.43l-0.38,0.22l-80.44,46.48l-0.12,0.07v0.14v67.63V236.69 M232.14,290.81l0.38-0.22
				l43.71-25.23l0.13-0.07v-0.14v-67.07v-0.43l-0.37,0.22L232.27,223l-0.13,0.07v0.14v67.16V290.81 M232.14,384.38l0.37-0.22
				l80.01-46.01l0.13-0.07v-0.14v-66.69v-0.43l-0.38,0.22l-80.01,46.24l-0.12,0.07v0.14v66.46V384.38 M214.27,20.05
				c-2.02,0-4.04,0.53-5.84,1.58l-88.5,51.08v27.11l19.46-11.26v161.2l-19.46,11.21v27.06l89.02-51.26v160.64l-18.76,10.79v27.02
				L330,354.87c3.61-2.06,5.86-5.96,5.86-10.13v-93.8c0-4.22-2.2-8.07-5.86-10.18c-1.81-1.06-3.82-1.58-5.85-1.58
				s-4.05,0.53-5.88,1.58l-18.71,10.83v-73.82c0-4.17-2.25-8.07-5.86-10.13c-1.82-1.06-3.86-1.59-5.9-1.59
				c-2.02,0-4.03,0.52-5.83,1.54l-15.24,8.82v-74.57c0-4.17-2.25-8.02-5.86-10.13c-1.83-1.06-3.86-1.58-5.88-1.58
				c-2.02,0-4.04,0.53-5.84,1.58l-23.12,13.37V31.76c0-4.17-2.25-8.07-5.86-10.13C218.32,20.58,216.3,20.05,214.27,20.05
				L214.27,20.05z M162.84,141.51V75.01l39.73-22.93v66.51L162.84,141.51L162.84,141.51z M162.84,236.25v-67.63l80.44-46.48v67.77
				L162.84,236.25L162.84,236.25z M232.39,290.38v-67.16l43.71-25.14v67.07L232.39,290.38L232.39,290.38z M232.39,383.95v-66.46
				l80.01-46.25v66.69L232.39,383.95L232.39,383.95z"/>
		</g>
	</g>
</g>
</svg>
